<svg width="396" height="396" viewBox="0 0 396 396" fill="none" xmlns="http://www.w3.org/2000/svg">
<rect width="396" height="396" rx="50" fill="white"/>
<path d="M221.486 372.5C186.486 372.5 155.486 365.5 128.486 351.5C101.486 337.5 80.3197 317.833 64.9863 292.5C49.653 266.833 41.9863 237.167 41.9863 203.5C41.9863 175.833 46.9863 151.167 56.9863 129.5C66.9863 107.5 80.653 88.6667 97.9863 73C115.653 57.3333 135.82 45.5 158.486 37.5C181.486 29.1667 205.986 25 231.986 25C251.653 25 270.486 26.8333 288.486 30.5C306.486 34.1666 320.82 38.5 331.486 43.5V122.5H319.986C313.32 102.167 305.32 86.6667 295.986 76C286.653 65 276.153 57.3333 264.486 53C253.153 48.6667 241.153 46.5 228.486 46.5C164.153 46.5 131.986 93.1667 131.986 186.5C131.986 217.167 135.153 245 141.486 270C148.153 295 158.32 314.833 171.986 329.5C185.986 343.833 203.82 351 225.486 351C243.153 351 259.153 346.667 273.486 338C287.82 329 299.986 317.167 309.986 302.5C320.32 287.833 327.653 272 331.986 255H343.486L339.486 331C328.486 343 312.986 353 292.986 361C272.986 368.667 249.153 372.5 221.486 372.5Z" fill="#D4ACC5"/>
</svg>
